<?xml version="1.0" encoding="UTF-8" standalone="no"?>
<!DOCTYPE svg PUBLIC "-//W3C//DTD SVG 1.1//EN" "http://www.w3.org/Graphics/SVG/1.1/DTD/svg11.dtd">
<svg version="1.1" xmlns="http://www.w3.org/2000/svg" xmlns:xlink="http://www.w3.org/1999/xlink" preserveAspectRatio="xMidYMid meet" viewBox="133.4613003095975 133.46130030959753 1068.0773993808048 1068.077399380805" width="1064.08" height="1064.08"><defs><path d="M1006.11 321.8C1006.11 214.98 818.57 134.46 570.28 134.46C321.8 134.46 134.46 214.89 134.46 321.8C134.46 428.63 321.8 509.15 570.28 509.15C818.57 509.15 1006.11 428.72 1006.11 321.8Z" id="kxyhU5gYZ"></path><path d="M570.28 724.04C574.7 724.04 578.92 723.75 583.34 723.65C642.94 614.53 758.78 540.34 891.61 540.34C930.67 540.34 968.1 546.96 1003.23 558.77C1005.05 551.47 1006.11 544.08 1006.11 536.69C1006.11 525.55 1006.11 436.41 1006.11 425.27C932.88 503.87 773.94 553.39 570.38 553.39C366.63 553.39 207.69 503.77 134.56 425.07C134.56 436.24 134.56 525.53 134.56 536.69C134.56 643.42 321.9 723.94 570.38 723.94C570.36 723.96 570.3 724.02 570.28 724.04Z" id="a7CAvnWPO"></path><path d="M540.34 891.71C540.34 848.23 548.69 806.77 563.18 768.28C362.98 767.13 206.83 717.89 134.46 640.15C134.46 648.82 134.46 718.15 134.46 726.82C134.46 829.42 307.6 907.54 541.49 913.49C541.01 906.29 540.34 899.1 540.34 891.71Z" id="b2y1gHzfYa"></path><path d="M134.46 916.85C134.46 1023.58 321.8 1104.1 570.28 1104.1C584.2 1104.1 598.02 1103.52 611.75 1102.95C579.98 1060.91 557.23 1011.77 546.87 958.02C354.53 954.38 204.81 905.72 134.46 830.19C134.46 847.52 134.46 908.18 134.46 916.85Z" id="fBHo9Lgkl"></path><path d="M789.01 944.59L820.4 913.2L869.44 962.34L869.44 767.42L913.78 767.42L913.78 962.34L962.82 913.2L994.21 944.59L891.61 1047.19L789.01 944.59ZM584.68 891.71C584.68 1060.81 722.31 1198.54 891.51 1198.54C1060.91 1198.54 1198.54 1060.91 1198.54 891.71C1198.54 722.31 1060.91 584.68 891.51 584.68C722.41 584.68 584.68 722.31 584.68 891.71Z" id="b1BYUxquDO"></path></defs><g><g><use xlink:href="#kxyhU5gYZ" opacity="1" fill="#ffffff" fill-opacity="1"></use><g><use xlink:href="#kxyhU5gYZ" opacity="1" fill-opacity="0" stroke="#000000" stroke-width="1" stroke-opacity="0"></use></g></g><g><use xlink:href="#a7CAvnWPO" opacity="1" fill="#ffffff" fill-opacity="1"></use><g><use xlink:href="#a7CAvnWPO" opacity="1" fill-opacity="0" stroke="#000000" stroke-width="1" stroke-opacity="0"></use></g></g><g><use xlink:href="#b2y1gHzfYa" opacity="1" fill="#ffffff" fill-opacity="1"></use><g><use xlink:href="#b2y1gHzfYa" opacity="1" fill-opacity="0" stroke="#000000" stroke-width="1" stroke-opacity="0"></use></g></g><g><use xlink:href="#fBHo9Lgkl" opacity="1" fill="#ffffff" fill-opacity="1"></use><g><use xlink:href="#fBHo9Lgkl" opacity="1" fill-opacity="0" stroke="#000000" stroke-width="1" stroke-opacity="0"></use></g></g><g><use xlink:href="#b1BYUxquDO" opacity="1" fill="#ffffff" fill-opacity="1"></use><g><use xlink:href="#b1BYUxquDO" opacity="1" fill-opacity="0" stroke="#000000" stroke-width="1" stroke-opacity="0"></use></g></g></g></svg>